<?xml version="1.0" encoding="utf-8"?>
<svg width="398" height="1200" viewBox="0 0 398 1200" xmlns="http://www.w3.org/2000/svg">
<rect id="frame" x="0" y="0" width="398" height="1200" fill="#f7f7f7" stroke="none" stroke-width="0"/>

<!-- Association POSSÈDE -->
<g>
	<line x1="85" y1="85" x2="230" y2="85" stroke="#7fbc41" stroke-width="2"/>
	<text x="166" y="77" fill="#c51b7d" font-family="Verdana" font-size="12">1,1</text>
	<line x1="344" y1="85" x2="230" y2="85" stroke="#7fbc41" stroke-width="2"/>
	<text x="272" y="102" fill="#c51b7d" font-family="Verdana" font-size="12">0,N</text>
	<g>
		<path d="M253 60 a14 14 90 0 1 14 14 V85 h-74 V74 a14 14 90 0 1 14 -14" fill="#b8e186" stroke="#b8e186" stroke-width="0"/>
		<path d="M267 85 v11 a14 14 90 0 1 -14 14 H207 a14 14 90 0 1 -14 -14 V85 H74" fill="#e6f5d0" stroke="#e6f5d0" stroke-width="0"/>
		<rect x="193" y="60" width="74" height="50" fill="none" rx="14" stroke="#7fbc41" stroke-width="2"/>
		<line x1="193" y1="85" x2="267" y2="85" stroke="#7fbc41" stroke-width="1"/>
		<text x="201" y="77.75" fill="#000" font-family="Verdana" font-size="12">POSSÈDE</text>
	</g>
</g>

<!-- Association ECRIT -->
<g>
	<line x1="85" y1="262" x2="230" y2="262" stroke="#7fbc41" stroke-width="2"/>
	<text x="153" y="254" fill="#c51b7d" font-family="Verdana" font-size="12">1,1</text>
	<line x1="85" y1="85" x2="230" y2="262" stroke="#7fbc41" stroke-width="2"/>
	<text x="126.34" y="178" fill="#c51b7d" font-family="Verdana" font-size="12">0,N</text>
	<g>
		<path d="M242 237 a14 14 90 0 1 14 14 V262 h-52 V251 a14 14 90 0 1 14 -14" fill="#b8e186" stroke="#b8e186" stroke-width="0"/>
		<path d="M256 262 v11 a14 14 90 0 1 -14 14 H218 a14 14 90 0 1 -14 -14 V262 H52" fill="#e6f5d0" stroke="#e6f5d0" stroke-width="0"/>
		<rect x="204" y="237" width="52" height="50" fill="none" rx="14" stroke="#7fbc41" stroke-width="2"/>
		<line x1="204" y1="262" x2="256" y2="262" stroke="#7fbc41" stroke-width="1"/>
		<text x="211" y="254.75" fill="#000" font-family="Verdana" font-size="12">ECRIT</text>
	</g>
</g>

<!-- Association POSSÈDE1 -->
<g>
	<line x1="85" y1="262" x2="230" y2="363" stroke="#7fbc41" stroke-width="2"/>
	<text x="153" y="303.19" fill="#c51b7d" font-family="Verdana" font-size="12">0,N</text>
	<line x1="230" y1="438" x2="230" y2="363" stroke="#7fbc41" stroke-width="2"/>
	<text x="235" y="405" fill="#c51b7d" font-family="Verdana" font-size="12">0,N</text>
	<g>
		<path d="M253 338 a14 14 90 0 1 14 14 V363 h-74 V352 a14 14 90 0 1 14 -14" fill="#b8e186" stroke="#b8e186" stroke-width="0"/>
		<path d="M267 363 v11 a14 14 90 0 1 -14 14 H207 a14 14 90 0 1 -14 -14 V363 H74" fill="#e6f5d0" stroke="#e6f5d0" stroke-width="0"/>
		<rect x="193" y="338" width="74" height="50" fill="none" rx="14" stroke="#7fbc41" stroke-width="2"/>
		<line x1="193" y1="363" x2="267" y2="363" stroke="#7fbc41" stroke-width="1"/>
		<text x="201" y="355.75" fill="#000" font-family="Verdana" font-size="12">POSSÈDE</text>
	</g>
</g>

<!-- Association ASSOCIÉ -->
<g>
	<line x1="85" y1="573" x2="230" y2="573" stroke="#7fbc41" stroke-width="2"/>
	<text x="133" y="565" fill="#c51b7d" font-family="Verdana" font-size="12">0,N</text>
	<line x1="344" y1="573" x2="230" y2="573" stroke="#7fbc41" stroke-width="2"/>
	<text x="277" y="590" fill="#c51b7d" font-family="Verdana" font-size="12">0,N</text>
	<g>
		<path d="M251 548 a14 14 90 0 1 14 14 V573 h-70 V562 a14 14 90 0 1 14 -14" fill="#b8e186" stroke="#b8e186" stroke-width="0"/>
		<path d="M265 573 v11 a14 14 90 0 1 -14 14 H209 a14 14 90 0 1 -14 -14 V573 H70" fill="#e6f5d0" stroke="#e6f5d0" stroke-width="0"/>
		<rect x="195" y="548" width="70" height="50" fill="none" rx="14" stroke="#7fbc41" stroke-width="2"/>
		<line x1="195" y1="573" x2="265" y2="573" stroke="#7fbc41" stroke-width="1"/>
		<text x="202" y="565.75" fill="#000" font-family="Verdana" font-size="12">ASSOCIÉ</text>
	</g>
</g>

<!-- Association POSSÈDE2 -->
<g>
	<line x1="85" y1="573" x2="230" y2="742" stroke="#7fbc41" stroke-width="2"/>
	<text x="133" y="621.43" fill="#c51b7d" font-family="Verdana" font-size="12">0,N</text>
	<line x1="85" y1="742" x2="230" y2="742" stroke="#7fbc41" stroke-width="2"/>
	<text x="130" y="759" fill="#c51b7d" font-family="Verdana" font-size="12">0,N</text>
	<g>
		<path d="M253 717 a14 14 90 0 1 14 14 V742 h-74 V731 a14 14 90 0 1 14 -14" fill="#b8e186" stroke="#b8e186" stroke-width="0"/>
		<path d="M267 742 v11 a14 14 90 0 1 -14 14 H207 a14 14 90 0 1 -14 -14 V742 H74" fill="#e6f5d0" stroke="#e6f5d0" stroke-width="0"/>
		<rect x="193" y="717" width="74" height="50" fill="none" rx="14" stroke="#7fbc41" stroke-width="2"/>
		<line x1="193" y1="742" x2="267" y2="742" stroke="#7fbc41" stroke-width="1"/>
		<text x="201" y="734.75" fill="#000" font-family="Verdana" font-size="12">POSSÈDE</text>
	</g>
</g>

<!-- Entity UTILISATEUR -->
<g>
	<g>
		<rect x="9" y="9" width="152" height="25" fill="#f1b6da" stroke="#f1b6da" stroke-width="0" opacity="1"/>
		<rect x="9" y="34" width="152" height="127" fill="#fde0ef" stroke="#fde0ef" stroke-width="0" opacity="1"/>
		<rect x="9" y="9" width="152" height="152" fill="none" stroke="#de77ae" stroke-width="2" opacity="1"/>
		<line x1="9" y1="34" x2="161" y2="34" stroke="#de77ae" stroke-width="1"/>
	</g>
	<text x="44" y="26.75" fill="#000" font-family="Verdana" font-size="12">UTILISATEUR</text>
	<text x="14" y="51.8" fill="#000" font-family="Verdana" font-size="12">email</text>
	<line x1="14" y1="54" x2="48" y2="54" stroke="#000" stroke-width="1"/>
	<text x="14" y="68.8" fill="#000" font-family="Verdana" font-size="12">pseudo</text>
	<text x="14" y="85.8" fill="#000" font-family="Verdana" font-size="12">nom</text>
	<text x="14" y="102.8" fill="#000" font-family="Verdana" font-size="12">prénom</text>
	<text x="14" y="119.8" fill="#000" font-family="Verdana" font-size="12">mot de passe</text>
	<text x="14" y="136.8" fill="#000" font-family="Verdana" font-size="12">permission</text>
	<text x="14" y="153.8" fill="#000" font-family="Verdana" font-size="12">clé de rafraîchissement</text>
</g>

<!-- Entity PERMISSION -->
<g>
	<g>
		<rect x="299" y="51" width="90" height="25" fill="#f1b6da" stroke="#f1b6da" stroke-width="0" opacity="1"/>
		<rect x="299" y="76" width="90" height="43" fill="#fde0ef" stroke="#fde0ef" stroke-width="0" opacity="1"/>
		<rect x="299" y="51" width="90" height="68" fill="none" stroke="#de77ae" stroke-width="2" opacity="1"/>
		<line x1="299" y1="76" x2="389" y2="76" stroke="#de77ae" stroke-width="1"/>
	</g>
	<text x="305" y="68.75" fill="#000" font-family="Verdana" font-size="12">PERMISSION</text>
	<text x="304" y="93.8" fill="#000" font-family="Verdana" font-size="12">nom</text>
	<line x1="304" y1="96" x2="332" y2="96" stroke="#000" stroke-width="1"/>
	<text x="304" y="110.8" fill="#000" font-family="Verdana" font-size="12">niveau</text>
</g>

<!-- Entity ARTICLE -->
<g>
	<g>
		<rect x="22" y="186" width="126" height="25" fill="#f1b6da" stroke="#f1b6da" stroke-width="0" opacity="1"/>
		<rect x="22" y="211" width="126" height="127" fill="#fde0ef" stroke="#fde0ef" stroke-width="0" opacity="1"/>
		<rect x="22" y="186" width="126" height="152" fill="none" stroke="#de77ae" stroke-width="2" opacity="1"/>
		<line x1="22" y1="211" x2="148" y2="211" stroke="#de77ae" stroke-width="1"/>
	</g>
	<text x="59" y="203.75" fill="#000" font-family="Verdana" font-size="12">ARTICLE</text>
	<text x="27" y="228.8" fill="#000" font-family="Verdana" font-size="12">slug</text>
	<line x1="27" y1="231" x2="53" y2="231" stroke="#000" stroke-width="1"/>
	<text x="27" y="245.8" fill="#000" font-family="Verdana" font-size="12">titre</text>
	<text x="27" y="262.8" fill="#000" font-family="Verdana" font-size="12">contenu</text>
	<text x="27" y="279.8" fill="#000" font-family="Verdana" font-size="12">auteur</text>
	<text x="27" y="296.8" fill="#000" font-family="Verdana" font-size="12">date de publication</text>
	<text x="27" y="313.8" fill="#000" font-family="Verdana" font-size="12">lien image</text>
	<text x="27" y="330.8" fill="#000" font-family="Verdana" font-size="12">légende image</text>
</g>

<!-- Entity CATÉGORIE -->
<g>
	<g>
		<rect x="189" y="413" width="82" height="25" fill="#f1b6da" stroke="#f1b6da" stroke-width="0" opacity="1"/>
		<rect x="189" y="438" width="82" height="25" fill="#fde0ef" stroke="#fde0ef" stroke-width="0" opacity="1"/>
		<rect x="189" y="413" width="82" height="50" fill="none" stroke="#de77ae" stroke-width="2" opacity="1"/>
		<line x1="189" y1="438" x2="271" y2="438" stroke="#de77ae" stroke-width="1"/>
	</g>
	<text x="194" y="430.75" fill="#000" font-family="Verdana" font-size="12">CATÉGORIE</text>
	<text x="194" y="455.8" fill="#000" font-family="Verdana" font-size="12">nom</text>
	<line x1="194" y1="458" x2="222" y2="458" stroke="#000" stroke-width="1"/>
</g>

<!-- Entity JOUEUR -->
<g>
	<g>
		<rect x="42" y="463" width="86" height="25" fill="#f1b6da" stroke="#f1b6da" stroke-width="0" opacity="1"/>
		<rect x="42" y="488" width="86" height="195" fill="#fde0ef" stroke="#fde0ef" stroke-width="0" opacity="1"/>
		<rect x="42" y="463" width="86" height="220" fill="none" stroke="#de77ae" stroke-width="2" opacity="1"/>
		<line x1="42" y1="488" x2="128" y2="488" stroke="#de77ae" stroke-width="1"/>
	</g>
	<text x="61" y="480.75" fill="#000" font-family="Verdana" font-size="12">JOUEUR</text>
	<text x="47" y="505.8" fill="#000" font-family="Verdana" font-size="12">pseudo</text>
	<line x1="47" y1="508" x2="91" y2="508" stroke="#000" stroke-width="1"/>
	<text x="47" y="522.8" fill="#000" font-family="Verdana" font-size="12">nom</text>
	<text x="47" y="539.8" fill="#000" font-family="Verdana" font-size="12">prénom</text>
	<text x="47" y="556.8" fill="#000" font-family="Verdana" font-size="12">description</text>
	<text x="47" y="573.8" fill="#000" font-family="Verdana" font-size="12">rôle</text>
	<text x="47" y="590.8" fill="#000" font-family="Verdana" font-size="12">lien image</text>
	<text x="47" y="607.8" fill="#000" font-family="Verdana" font-size="12">statistique</text>
	<text x="47" y="624.8" fill="#000" font-family="Verdana" font-size="12">palmarès</text>
	<text x="47" y="641.8" fill="#000" font-family="Verdana" font-size="12">lien youtube</text>
	<text x="47" y="658.8" fill="#000" font-family="Verdana" font-size="12">lien twitch</text>
	<text x="47" y="675.8" fill="#000" font-family="Verdana" font-size="12">lien twitter</text>
</g>

<!-- Entity MEDIA -->
<g>
	<g>
		<rect x="304" y="531" width="80" height="25" fill="#f1b6da" stroke="#f1b6da" stroke-width="0" opacity="1"/>
		<rect x="304" y="556" width="80" height="59" fill="#fde0ef" stroke="#fde0ef" stroke-width="0" opacity="1"/>
		<rect x="304" y="531" width="80" height="84" fill="none" stroke="#de77ae" stroke-width="2" opacity="1"/>
		<line x1="304" y1="556" x2="384" y2="556" stroke="#de77ae" stroke-width="1"/>
	</g>
	<text x="324" y="548.75" fill="#000" font-family="Verdana" font-size="12">MEDIA</text>
	<text x="309" y="573.8" fill="#000" font-family="Verdana" font-size="12">code média</text>
	<line x1="309" y1="576" x2="379" y2="576" stroke="#000" stroke-width="1"/>
	<text x="309" y="590.8" fill="#000" font-family="Verdana" font-size="12">lien</text>
	<text x="309" y="607.8" fill="#000" font-family="Verdana" font-size="12">est active</text>
</g>

<!-- Entity SETUP -->
<g>
	<g>
		<rect x="45" y="708" width="80" height="25" fill="#f1b6da" stroke="#f1b6da" stroke-width="0" opacity="1"/>
		<rect x="45" y="733" width="80" height="43" fill="#fde0ef" stroke="#fde0ef" stroke-width="0" opacity="1"/>
		<rect x="45" y="708" width="80" height="68" fill="none" stroke="#de77ae" stroke-width="2" opacity="1"/>
		<line x1="45" y1="733" x2="125" y2="733" stroke="#de77ae" stroke-width="1"/>
	</g>
	<text x="65" y="725.75" fill="#000" font-family="Verdana" font-size="12">SETUP</text>
	<text x="50" y="750.8" fill="#000" font-family="Verdana" font-size="12">nom</text>
	<line x1="50" y1="753" x2="78" y2="753" stroke="#000" stroke-width="1"/>
	<text x="50" y="767.8" fill="#000" font-family="Verdana" font-size="12">lien produit</text>
</g>

<!-- Entity CALENDRIER -->
<g>
	<g>
		<rect x="162" y="792" width="136" height="25" fill="#f1b6da" stroke="#f1b6da" stroke-width="0" opacity="1"/>
		<rect x="162" y="817" width="136" height="145" fill="#fde0ef" stroke="#fde0ef" stroke-width="0" opacity="1"/>
		<rect x="162" y="792" width="136" height="170" fill="none" stroke="#de77ae" stroke-width="2" opacity="1"/>
		<line x1="162" y1="817" x2="298" y2="817" stroke="#de77ae" stroke-width="1"/>
	</g>
	<text x="191" y="809.75" fill="#000" font-family="Verdana" font-size="12">CALENDRIER</text>
	<text x="167" y="834.8" fill="#000" font-family="Verdana" font-size="12">nom de l’événement</text>
	<line x1="167" y1="837" x2="292" y2="837" stroke="#000" stroke-width="1"/>
	<text x="167" y="851.8" fill="#000" font-family="Verdana" font-size="12">date de l’événement</text>
	<text x="167" y="868.8" fill="#000" font-family="Verdana" font-size="12">nom de l’équipe</text>
	<text x="167" y="885.8" fill="#000" font-family="Verdana" font-size="12">abréviation équipe</text>
	<text x="167" y="902.8" fill="#000" font-family="Verdana" font-size="12">lien replay</text>
	<text x="167" y="919.8" fill="#000" font-family="Verdana" font-size="12">lien live</text>
	<text x="167" y="936.8" fill="#000" font-family="Verdana" font-size="12">résultat</text>
	<text x="167" y="953.8" fill="#000" font-family="Verdana" font-size="12">lien image</text>
</g>

<!-- Entity RECRUTEMENT -->
<g>
	<g>
		<rect x="153" y="987" width="154" height="25" fill="#f1b6da" stroke="#f1b6da" stroke-width="0" opacity="1"/>
		<rect x="153" y="1012" width="154" height="179" fill="#fde0ef" stroke="#fde0ef" stroke-width="0" opacity="1"/>
		<rect x="153" y="987" width="154" height="204" fill="none" stroke="#de77ae" stroke-width="2" opacity="1"/>
		<line x1="153" y1="1012" x2="307" y2="1012" stroke="#de77ae" stroke-width="1"/>
	</g>
	<text x="184" y="1004.75" fill="#000" font-family="Verdana" font-size="12">RECRUTEMENT</text>
	<text x="158" y="1029.8" fill="#000" font-family="Verdana" font-size="12">email</text>
	<line x1="158" y1="1032" x2="192" y2="1032" stroke="#000" stroke-width="1"/>
	<text x="158" y="1046.8" fill="#000" font-family="Verdana" font-size="12">nom</text>
	<text x="158" y="1063.8" fill="#000" font-family="Verdana" font-size="12">prénom</text>
	<text x="158" y="1080.8" fill="#000" font-family="Verdana" font-size="12">message</text>
	<text x="158" y="1097.8" fill="#000" font-family="Verdana" font-size="12">cv</text>
	<text x="158" y="1114.8" fill="#000" font-family="Verdana" font-size="12">lien externe</text>
	<text x="158" y="1131.8" fill="#000" font-family="Verdana" font-size="12">est accepté</text>
	<text x="158" y="1148.8" fill="#000" font-family="Verdana" font-size="12">est revu</text>
	<text x="158" y="1165.8" fill="#000" font-family="Verdana" font-size="12">message examiné</text>
	<text x="158" y="1182.8" fill="#000" font-family="Verdana" font-size="12">message examiné privé</text>
</g>
</svg>