<?xml version="1.0" encoding="utf-8"?>
<svg width="522" height="1076" viewBox="0 0 522 1076" xmlns="http://www.w3.org/2000/svg">
<rect id="frame" x="0" y="0" width="522" height="1076" fill="#f7f7f7" stroke="none" stroke-width="0"/>

<!-- Association POSSÈDE -->
<g>
	<line x1="85" y1="77" x2="230" y2="77" stroke="#7fbc41" stroke-width="2"/>
	<text x="166" y="94" fill="#c51b7d" font-family="Verdana" font-size="12">1,1</text>
	<line x1="362" y1="77" x2="230" y2="77" stroke="#7fbc41" stroke-width="2"/>
	<text x="290" y="94" fill="#c51b7d" font-family="Verdana" font-size="12">0,N</text>
	<g>
		<path d="M253 52 a14 14 90 0 1 14 14 V77 h-74 V66 a14 14 90 0 1 14 -14" fill="#b8e186" stroke="#b8e186" stroke-width="0"/>
		<path d="M267 77 v11 a14 14 90 0 1 -14 14 H207 a14 14 90 0 1 -14 -14 V77 H74" fill="#e6f5d0" stroke="#e6f5d0" stroke-width="0"/>
		<rect x="193" y="52" width="74" height="50" fill="none" rx="14" stroke="#7fbc41" stroke-width="2"/>
		<line x1="193" y1="77" x2="267" y2="77" stroke="#7fbc41" stroke-width="1"/>
		<text x="201" y="69.75" fill="#000" font-family="Verdana" font-size="12">POSSÈDE</text>
	</g>
</g>

<!-- Association CRÉE -->
<g>
	<line x1="230" y1="238" x2="85" y2="238" stroke="#7fbc41" stroke-width="2"/>
	<text x="141" y="255" fill="#c51b7d" font-family="Verdana" font-size="12">1,1</text>
	<line x1="85" y1="77" x2="85" y2="238" stroke="#7fbc41" stroke-width="2"/>
	<text x="90" y="162" fill="#c51b7d" font-family="Verdana" font-size="12">0,N</text>
	<g>
		<path d="M95 213 a14 14 90 0 1 14 14 V238 h-48 V227 a14 14 90 0 1 14 -14" fill="#b8e186" stroke="#b8e186" stroke-width="0"/>
		<path d="M109 238 v11 a14 14 90 0 1 -14 14 H75 a14 14 90 0 1 -14 -14 V238 H48" fill="#e6f5d0" stroke="#e6f5d0" stroke-width="0"/>
		<rect x="61" y="213" width="48" height="50" fill="none" rx="14" stroke="#7fbc41" stroke-width="2"/>
		<line x1="61" y1="238" x2="109" y2="238" stroke="#7fbc41" stroke-width="1"/>
		<text x="69" y="230.75" fill="#000" font-family="Verdana" font-size="12">CRÉE</text>
	</g>
</g>

<!-- Association POSSÈDE1 -->
<g>
	<line x1="230" y1="238" x2="362" y2="238" stroke="#7fbc41" stroke-width="2"/>
	<text x="298" y="255" fill="#c51b7d" font-family="Verdana" font-size="12">0,N</text>
	<line x1="472" y1="238" x2="362" y2="238" stroke="#7fbc41" stroke-width="2"/>
	<text x="404" y="255" fill="#c51b7d" font-family="Verdana" font-size="12">0,N</text>
	<g>
		<path d="M385 213 a14 14 90 0 1 14 14 V238 h-74 V227 a14 14 90 0 1 14 -14" fill="#b8e186" stroke="#b8e186" stroke-width="0"/>
		<path d="M399 238 v11 a14 14 90 0 1 -14 14 H339 a14 14 90 0 1 -14 -14 V238 H74" fill="#e6f5d0" stroke="#e6f5d0" stroke-width="0"/>
		<rect x="325" y="213" width="74" height="50" fill="none" rx="14" stroke="#7fbc41" stroke-width="2"/>
		<line x1="325" y1="238" x2="399" y2="238" stroke="#7fbc41" stroke-width="1"/>
		<text x="333" y="230.75" fill="#000" font-family="Verdana" font-size="12">POSSÈDE</text>
	</g>
</g>

<!-- Association POSSÈDE2 -->
<g>
	<line x1="230" y1="533" x2="230" y2="373" stroke="#7fbc41" stroke-width="2"/>
	<text x="235" y="415" fill="#c51b7d" font-family="Verdana" font-size="12">0,N</text>
	<line x1="85" y1="373" x2="230" y2="373" stroke="#7fbc41" stroke-width="2"/>
	<text x="130" y="390" fill="#c51b7d" font-family="Verdana" font-size="12">0,N</text>
	<g>
		<path d="M253 348 a14 14 90 0 1 14 14 V373 h-74 V362 a14 14 90 0 1 14 -14" fill="#b8e186" stroke="#b8e186" stroke-width="0"/>
		<path d="M267 373 v11 a14 14 90 0 1 -14 14 H207 a14 14 90 0 1 -14 -14 V373 H74" fill="#e6f5d0" stroke="#e6f5d0" stroke-width="0"/>
		<rect x="193" y="348" width="74" height="50" fill="none" rx="14" stroke="#7fbc41" stroke-width="2"/>
		<line x1="193" y1="373" x2="267" y2="373" stroke="#7fbc41" stroke-width="1"/>
		<text x="201" y="365.75" fill="#000" font-family="Verdana" font-size="12">POSSÈDE</text>
	</g>
</g>

<!-- Association ASSOCIÉ -->
<g>
	<line x1="230" y1="533" x2="362" y2="533" stroke="#7fbc41" stroke-width="2"/>
	<text x="278" y="550" fill="#c51b7d" font-family="Verdana" font-size="12">0,N</text>
	<line x1="362" y1="373" x2="362" y2="533" stroke="#7fbc41" stroke-width="2"/>
	<text x="367" y="432" fill="#c51b7d" font-family="Verdana" font-size="12">0,N</text>
	<g>
		<path d="M383 508 a14 14 90 0 1 14 14 V533 h-70 V522 a14 14 90 0 1 14 -14" fill="#b8e186" stroke="#b8e186" stroke-width="0"/>
		<path d="M397 533 v11 a14 14 90 0 1 -14 14 H341 a14 14 90 0 1 -14 -14 V533 H70" fill="#e6f5d0" stroke="#e6f5d0" stroke-width="0"/>
		<rect x="327" y="508" width="70" height="50" fill="none" rx="14" stroke="#7fbc41" stroke-width="2"/>
		<line x1="327" y1="533" x2="397" y2="533" stroke="#7fbc41" stroke-width="1"/>
		<text x="334" y="525.75" fill="#000" font-family="Verdana" font-size="12">ASSOCIÉ</text>
	</g>
</g>

<!-- Entity UTILISATEUR -->
<g>
	<g>
		<rect x="9" y="9" width="152" height="25" fill="#f1b6da" stroke="#f1b6da" stroke-width="0" opacity="1"/>
		<rect x="9" y="34" width="152" height="111" fill="#fde0ef" stroke="#fde0ef" stroke-width="0" opacity="1"/>
		<rect x="9" y="9" width="152" height="136" fill="none" stroke="#de77ae" stroke-width="2" opacity="1"/>
		<line x1="9" y1="34" x2="161" y2="34" stroke="#de77ae" stroke-width="1"/>
	</g>
	<text x="44" y="26.75" fill="#000" font-family="Verdana" font-size="12">UTILISATEUR</text>
	<text x="14" y="51.8" fill="#000" font-family="Verdana" font-size="12">email</text>
	<line x1="14" y1="54" x2="48" y2="54" stroke="#000" stroke-width="1"/>
	<text x="14" y="68.8" fill="#000" font-family="Verdana" font-size="12">pseudo</text>
	<text x="14" y="85.8" fill="#000" font-family="Verdana" font-size="12">nom</text>
	<text x="14" y="102.8" fill="#000" font-family="Verdana" font-size="12">prénom</text>
	<text x="14" y="119.8" fill="#000" font-family="Verdana" font-size="12">mot de passe</text>
	<text x="14" y="136.8" fill="#000" font-family="Verdana" font-size="12">clé de rafraîchissement</text>
</g>

<!-- Entity PERMISSION -->
<g>
	<g>
		<rect x="317" y="43" width="90" height="25" fill="#f1b6da" stroke="#f1b6da" stroke-width="0" opacity="1"/>
		<rect x="317" y="68" width="90" height="43" fill="#fde0ef" stroke="#fde0ef" stroke-width="0" opacity="1"/>
		<rect x="317" y="43" width="90" height="68" fill="none" stroke="#de77ae" stroke-width="2" opacity="1"/>
		<line x1="317" y1="68" x2="407" y2="68" stroke="#de77ae" stroke-width="1"/>
	</g>
	<text x="323" y="60.75" fill="#000" font-family="Verdana" font-size="12">PERMISSION</text>
	<text x="322" y="85.8" fill="#000" font-family="Verdana" font-size="12">nom</text>
	<line x1="322" y1="88" x2="350" y2="88" stroke="#000" stroke-width="1"/>
	<text x="322" y="102.8" fill="#000" font-family="Verdana" font-size="12">niveau</text>
</g>

<!-- Entity ARTICLE -->
<g>
	<g>
		<rect x="167" y="170" width="126" height="25" fill="#f1b6da" stroke="#f1b6da" stroke-width="0" opacity="1"/>
		<rect x="167" y="195" width="126" height="111" fill="#fde0ef" stroke="#fde0ef" stroke-width="0" opacity="1"/>
		<rect x="167" y="170" width="126" height="136" fill="none" stroke="#de77ae" stroke-width="2" opacity="1"/>
		<line x1="167" y1="195" x2="293" y2="195" stroke="#de77ae" stroke-width="1"/>
	</g>
	<text x="204" y="187.75" fill="#000" font-family="Verdana" font-size="12">ARTICLE</text>
	<text x="172" y="212.8" fill="#000" font-family="Verdana" font-size="12">slug</text>
	<line x1="172" y1="215" x2="198" y2="215" stroke="#000" stroke-width="1"/>
	<text x="172" y="229.8" fill="#000" font-family="Verdana" font-size="12">titre</text>
	<text x="172" y="246.8" fill="#000" font-family="Verdana" font-size="12">contenu</text>
	<text x="172" y="263.8" fill="#000" font-family="Verdana" font-size="12">date de publication</text>
	<text x="172" y="280.8" fill="#000" font-family="Verdana" font-size="12">lien image</text>
	<text x="172" y="297.8" fill="#000" font-family="Verdana" font-size="12">légende image</text>
</g>

<!-- Entity CATÉGORIE -->
<g>
	<g>
		<rect x="431" y="213" width="82" height="25" fill="#f1b6da" stroke="#f1b6da" stroke-width="0" opacity="1"/>
		<rect x="431" y="238" width="82" height="25" fill="#fde0ef" stroke="#fde0ef" stroke-width="0" opacity="1"/>
		<rect x="431" y="213" width="82" height="50" fill="none" stroke="#de77ae" stroke-width="2" opacity="1"/>
		<line x1="431" y1="238" x2="513" y2="238" stroke="#de77ae" stroke-width="1"/>
	</g>
	<text x="436" y="230.75" fill="#000" font-family="Verdana" font-size="12">CATÉGORIE</text>
	<text x="436" y="255.8" fill="#000" font-family="Verdana" font-size="12">nom</text>
	<line x1="436" y1="258" x2="464" y2="258" stroke="#000" stroke-width="1"/>
</g>

<!-- Entity SETUP -->
<g>
	<g>
		<rect x="45" y="339" width="80" height="25" fill="#f1b6da" stroke="#f1b6da" stroke-width="0" opacity="1"/>
		<rect x="45" y="364" width="80" height="43" fill="#fde0ef" stroke="#fde0ef" stroke-width="0" opacity="1"/>
		<rect x="45" y="339" width="80" height="68" fill="none" stroke="#de77ae" stroke-width="2" opacity="1"/>
		<line x1="45" y1="364" x2="125" y2="364" stroke="#de77ae" stroke-width="1"/>
	</g>
	<text x="65" y="356.75" fill="#000" font-family="Verdana" font-size="12">SETUP</text>
	<text x="50" y="381.8" fill="#000" font-family="Verdana" font-size="12">nom</text>
	<line x1="50" y1="384" x2="78" y2="384" stroke="#000" stroke-width="1"/>
	<text x="50" y="398.8" fill="#000" font-family="Verdana" font-size="12">lien produit</text>
</g>

<!-- Entity MEDIA -->
<g>
	<g>
		<rect x="322" y="331" width="80" height="25" fill="#f1b6da" stroke="#f1b6da" stroke-width="0" opacity="1"/>
		<rect x="322" y="356" width="80" height="59" fill="#fde0ef" stroke="#fde0ef" stroke-width="0" opacity="1"/>
		<rect x="322" y="331" width="80" height="84" fill="none" stroke="#de77ae" stroke-width="2" opacity="1"/>
		<line x1="322" y1="356" x2="402" y2="356" stroke="#de77ae" stroke-width="1"/>
	</g>
	<text x="342" y="348.75" fill="#000" font-family="Verdana" font-size="12">MEDIA</text>
	<text x="327" y="373.8" fill="#000" font-family="Verdana" font-size="12">code média</text>
	<line x1="327" y1="376" x2="397" y2="376" stroke="#000" stroke-width="1"/>
	<text x="327" y="390.8" fill="#000" font-family="Verdana" font-size="12">lien</text>
	<text x="327" y="407.8" fill="#000" font-family="Verdana" font-size="12">est active</text>
</g>

<!-- Entity JOUEUR -->
<g>
	<g>
		<rect x="187" y="423" width="86" height="25" fill="#f1b6da" stroke="#f1b6da" stroke-width="0" opacity="1"/>
		<rect x="187" y="448" width="86" height="195" fill="#fde0ef" stroke="#fde0ef" stroke-width="0" opacity="1"/>
		<rect x="187" y="423" width="86" height="220" fill="none" stroke="#de77ae" stroke-width="2" opacity="1"/>
		<line x1="187" y1="448" x2="273" y2="448" stroke="#de77ae" stroke-width="1"/>
	</g>
	<text x="206" y="440.75" fill="#000" font-family="Verdana" font-size="12">JOUEUR</text>
	<text x="192" y="465.8" fill="#000" font-family="Verdana" font-size="12">pseudo</text>
	<line x1="192" y1="468" x2="236" y2="468" stroke="#000" stroke-width="1"/>
	<text x="192" y="482.8" fill="#000" font-family="Verdana" font-size="12">nom</text>
	<text x="192" y="499.8" fill="#000" font-family="Verdana" font-size="12">prénom</text>
	<text x="192" y="516.8" fill="#000" font-family="Verdana" font-size="12">description</text>
	<text x="192" y="533.8" fill="#000" font-family="Verdana" font-size="12">rôle</text>
	<text x="192" y="550.8" fill="#000" font-family="Verdana" font-size="12">lien image</text>
	<text x="192" y="567.8" fill="#000" font-family="Verdana" font-size="12">statistique</text>
	<text x="192" y="584.8" fill="#000" font-family="Verdana" font-size="12">palmarès</text>
	<text x="192" y="601.8" fill="#000" font-family="Verdana" font-size="12">lien youtube</text>
	<text x="192" y="618.8" fill="#000" font-family="Verdana" font-size="12">lien twitch</text>
	<text x="192" y="635.8" fill="#000" font-family="Verdana" font-size="12">lien twitter</text>
</g>

<!-- Entity RECRUTEMENT -->
<g>
	<g>
		<rect x="153" y="668" width="154" height="25" fill="#f1b6da" stroke="#f1b6da" stroke-width="0" opacity="1"/>
		<rect x="153" y="693" width="154" height="179" fill="#fde0ef" stroke="#fde0ef" stroke-width="0" opacity="1"/>
		<rect x="153" y="668" width="154" height="204" fill="none" stroke="#de77ae" stroke-width="2" opacity="1"/>
		<line x1="153" y1="693" x2="307" y2="693" stroke="#de77ae" stroke-width="1"/>
	</g>
	<text x="184" y="685.75" fill="#000" font-family="Verdana" font-size="12">RECRUTEMENT</text>
	<text x="158" y="710.8" fill="#000" font-family="Verdana" font-size="12">email</text>
	<line x1="158" y1="713" x2="192" y2="713" stroke="#000" stroke-width="1"/>
	<text x="158" y="727.8" fill="#000" font-family="Verdana" font-size="12">nom</text>
	<text x="158" y="744.8" fill="#000" font-family="Verdana" font-size="12">prénom</text>
	<text x="158" y="761.8" fill="#000" font-family="Verdana" font-size="12">message</text>
	<text x="158" y="778.8" fill="#000" font-family="Verdana" font-size="12">cv</text>
	<text x="158" y="795.8" fill="#000" font-family="Verdana" font-size="12">lien externe</text>
	<text x="158" y="812.8" fill="#000" font-family="Verdana" font-size="12">est accepté</text>
	<text x="158" y="829.8" fill="#000" font-family="Verdana" font-size="12">est revu</text>
	<text x="158" y="846.8" fill="#000" font-family="Verdana" font-size="12">message examiné</text>
	<text x="158" y="863.8" fill="#000" font-family="Verdana" font-size="12">message examiné privé</text>
</g>

<!-- Entity CALENDRIER -->
<g>
	<g>
		<rect x="162" y="897" width="136" height="25" fill="#f1b6da" stroke="#f1b6da" stroke-width="0" opacity="1"/>
		<rect x="162" y="922" width="136" height="145" fill="#fde0ef" stroke="#fde0ef" stroke-width="0" opacity="1"/>
		<rect x="162" y="897" width="136" height="170" fill="none" stroke="#de77ae" stroke-width="2" opacity="1"/>
		<line x1="162" y1="922" x2="298" y2="922" stroke="#de77ae" stroke-width="1"/>
	</g>
	<text x="191" y="914.75" fill="#000" font-family="Verdana" font-size="12">CALENDRIER</text>
	<text x="167" y="939.8" fill="#000" font-family="Verdana" font-size="12">nom de l’événement</text>
	<line x1="167" y1="942" x2="292" y2="942" stroke="#000" stroke-width="1"/>
	<text x="167" y="956.8" fill="#000" font-family="Verdana" font-size="12">date de l’événement</text>
	<text x="167" y="973.8" fill="#000" font-family="Verdana" font-size="12">nom de l’équipe</text>
	<text x="167" y="990.8" fill="#000" font-family="Verdana" font-size="12">abréviation équipe</text>
	<text x="167" y="1007.8" fill="#000" font-family="Verdana" font-size="12">lien replay</text>
	<text x="167" y="1024.8" fill="#000" font-family="Verdana" font-size="12">lien live</text>
	<text x="167" y="1041.8" fill="#000" font-family="Verdana" font-size="12">résultat</text>
	<text x="167" y="1058.8" fill="#000" font-family="Verdana" font-size="12">lien image</text>
</g>
</svg>